<svg xmlns="http://www.w3.org/2000/svg" viewBox="0 0 100.0 100.0" role="img" aria-label="Vijayalakshmi Steels &amp; Cements"><title>Vijayalakshmi Steels &amp; Cements</title><defs><linearGradient id="steel-f" x1="0" y1="0" x2="1" y2="0"><stop offset="0" stop-color="#e3e7ec"/><stop offset="1" stop-color="#8d97a3"/></linearGradient><linearGradient id="rim-f" x1="0" y1="0" x2="0" y2="1"><stop offset="0" stop-color="#b9c1ca"/><stop offset="1" stop-color="#4f5761"/></linearGradient></defs><polygon points="96,50 73,10.2 27,10.2 4,50 27,89.8 73,89.8" fill="#11151b" stroke="url(#rim-f)" stroke-width="5" stroke-linejoin="round"/><polygon points="96,50 73,10.2 27,10.2 4,50 27,89.8 73,89.8" transform="translate(50 50) scale(.86) translate(-50 -50)" fill="none" stroke="#ffffff" stroke-opacity=".12" stroke-width="1.4" stroke-linejoin="round"/><polygon points="24,25 37,25 49.1,55.8 49.1,69 45.6,69" fill="#f26b1d"/><polygon points="76,25 63,25 50.9,55.8 50.9,69 54.4,69" fill="url(#steel-f)"/><line x1="59.75" y1="35.88" x2="69.75" y2="31.48" stroke="#11151b" stroke-opacity=".38" stroke-width="1.6" stroke-linecap="round"/><line x1="55.00" y1="45.56" x2="65.00" y2="41.16" stroke="#11151b" stroke-opacity=".38" stroke-width="1.6" stroke-linecap="round"/><line x1="50.24" y1="55.24" x2="60.24" y2="50.84" stroke="#11151b" stroke-opacity=".38" stroke-width="1.6" stroke-linecap="round"/><rect x="24" y="73.5" width="16" height="6" rx="1.2" fill="#c3cad3"/><rect x="42" y="73.5" width="16" height="6" rx="1.2" fill="#c3cad3"/><rect x="60" y="73.5" width="16" height="6" rx="1.2" fill="#c3cad3"/></svg>
